<?xml version="1.0" encoding="UTF-8" standalone="no"?>
<!DOCTYPE svg PUBLIC "-//W3C//DTD SVG 1.1//EN"
 "http://www.w3.org/Graphics/SVG/1.1/DTD/svg11.dtd">
<!-- Generated by graphviz version 2.38.0 (20140413.2041)
 -->
<!-- Title: %3 Pages: 1 -->
<svg width="120pt" height="188pt"
 viewBox="0.00 0.00 119.64 188.00" xmlns="http://www.w3.org/2000/svg" xmlns:xlink="http://www.w3.org/1999/xlink">
<g id="graph0" class="graph" transform="scale(1 1) rotate(0) translate(4 184)">
<title>%3</title>
<polygon fill="white" stroke="none" points="-4,4 -4,-184 115.643,-184 115.643,4 -4,4"/>
<!-- A -->
<g id="node1" class="node"><title>A</title>
<ellipse fill="none" stroke="black" cx="71.9965" cy="-162" rx="39.7935" ry="18"/>
<text text-anchor="middle" x="71.9965" y="-158.3" font-family="Times New Roman,serif" font-size="14.00">Node A</text>
</g>
<!-- B -->
<g id="node2" class="node"><title>B</title>
<ellipse fill="none" stroke="black" cx="38.9965" cy="-90" rx="38.9931" ry="18"/>
<text text-anchor="middle" x="38.9965" y="-86.3" font-family="Times New Roman,serif" font-size="14.00">Node B</text>
</g>
<!-- A&#45;&gt;B -->
<g id="edge1" class="edge"><title>A&#45;&gt;B</title>
<path fill="none" stroke="black" d="M64.0082,-144.055C60.1979,-135.973 55.5538,-126.121 51.3063,-117.112"/>
<polygon fill="black" stroke="black" points="54.3414,-115.342 46.9114,-107.789 48.0098,-118.327 54.3414,-115.342"/>
</g>
<!-- C -->
<g id="node3" class="node"><title>C</title>
<ellipse fill="none" stroke="black" cx="71.9965" cy="-18" rx="39.7935" ry="18"/>
<text text-anchor="middle" x="71.9965" y="-14.3" font-family="Times New Roman,serif" font-size="14.00">Node C</text>
</g>
<!-- A&#45;&gt;C -->
<g id="edge2" class="edge"><title>A&#45;&gt;C</title>
<path fill="none" stroke="black" d="M78.0788,-144.07C81.4462,-133.789 85.2876,-120.314 86.9965,-108 89.196,-92.1519 89.196,-87.8481 86.9965,-72 85.7816,-63.2458 83.4888,-53.9046 81.0548,-45.5413"/>
<polygon fill="black" stroke="black" points="84.3801,-44.4474 78.0788,-35.9301 77.6933,-46.5179 84.3801,-44.4474"/>
</g>
<!-- B&#45;&gt;C -->
<g id="edge3" class="edge"><title>B&#45;&gt;C</title>
<path fill="none" stroke="black" d="M46.9849,-72.055C50.7952,-63.9726 55.4393,-54.1214 59.6867,-45.1117"/>
<polygon fill="black" stroke="black" points="62.9833,-46.3268 64.0817,-35.789 56.6516,-43.3418 62.9833,-46.3268"/>
</g>
</g>
</svg>
